HIERARCHY
ROOT Hips
{
  OFFSET 0 0 0
  CHANNELS 6 Xposition Yposition Zposition Zrotation Xrotation Yrotation
  JOINT Spine
  {
    OFFSET 0.00000000 0.00000000 0.00000000
    CHANNELS 3 Zrotation Xrotation Yrotation
    JOINT Spine1
    {
      OFFSET 0.19000000 0.00000000 0.00000000
      CHANNELS 3 Zrotation Xrotation Yrotation
      JOINT Neck
      {
        OFFSET 0.22500000 0.00600000 0.00000000
        CHANNELS 3 Zrotation Xrotation Yrotation
        JOINT Head
        {
          OFFSET 0.14000000 0.00030878 0.00000000
          CHANNELS 3 Zrotation Xrotation Yrotation
          End Site
          {
            OFFSET 0.17000000 0.00000000 0.00000000
          }
        }
      }
      JOINT LeftShoulder
      {
        OFFSET 0.19800000 0.03700000 0.04300000
        CHANNELS 3 Zrotation Xrotation Yrotation
        JOINT LeftArm
        {
          OFFSET 0.08000000 0.00000000 0.00000000
          CHANNELS 3 Zrotation Xrotation Yrotation
          JOINT LeftForeArm
          {
            OFFSET 0.15200000 0.00000000 0.00000000
            CHANNELS 3 Zrotation Xrotation Yrotation
            JOINT LeftHand
            {
              OFFSET 0.17800000 0.00000000 0.00000000
              CHANNELS 3 Zrotation Xrotation Yrotation
              End Site
              {
                OFFSET 0.07200000 0.00000000 0.00000000
              }
            }
          }
        }
      }
      JOINT RightShoulder
      {
        OFFSET 0.19800000 0.03700000 -0.04300000
        CHANNELS 3 Zrotation Xrotation Yrotation
        JOINT RightArm
        {
          OFFSET 0.08000000 0.00000000 0.00151654
          CHANNELS 3 Zrotation Xrotation Yrotation
          JOINT RightForeArm
          {
            OFFSET 0.15200000 0.00000000 0.00000000
            CHANNELS 3 Zrotation Xrotation Yrotation
            JOINT RightHand
            {
              OFFSET 0.17800000 0.00000000 0.00000000
              CHANNELS 3 Zrotation Xrotation Yrotation
              End Site
              {
                OFFSET 0.07200000 0.00000000 0.00000000
              }
            }
          }
        }
      }
    }
  }
  JOINT LeftUpLeg
  {
    OFFSET 0.05984250 -0.07666000 0.04788790
    CHANNELS 3 Zrotation Xrotation Yrotation
    JOINT LeftLeg
    {
      OFFSET 0.16000000 0.00000000 0.00000000
      CHANNELS 3 Zrotation Xrotation Yrotation
      JOINT LeftFoot
      {
        OFFSET 0.18000000 0.00000000 0.00000000
        CHANNELS 3 Zrotation Xrotation Yrotation
        End Site
        {
          OFFSET 0.00000000 -0.10800000 0.00000000
        }
      }
    }
  }
  JOINT RightUpLeg
  {
    OFFSET 0.05984250 -0.07665980 -0.04788790
    CHANNELS 3 Zrotation Xrotation Yrotation
    JOINT RightLeg
    {
      OFFSET 0.16000000 0.00000000 0.00000000
      CHANNELS 3 Zrotation Xrotation Yrotation
      JOINT RightFoot
      {
        OFFSET 0.18000000 0.00000000 0.00000000
        CHANNELS 3 Zrotation Xrotation Yrotation
        End Site
        {
          OFFSET 0.00000000 -0.10800000 0.00000000
        }
      }
    }
  }
  JOINT Tail
  {
    OFFSET 0.06836960 -0.00722574 0.00000000
    CHANNELS 3 Zrotation Xrotation Yrotation
    JOINT Tail1
    {
      OFFSET 0.12000000 0.00000000 0.00000000
      CHANNELS 3 Zrotation Xrotation Yrotation
      End Site
      {
        OFFSET 0.12000000 0.00000000 0.00000000
      }
    }
  }
}
MOTION
Frames:	17
Frame Time:	0.0166667
-1.8641890 0.4560210 0.6549820 -4.96599 7.20380 11.3080 -177.489 1.11031 -16.2487 9.72548 1.62707 14.069 -3.15717 0.667963 -6.31261 -116.552 83.1863 129.574 -113.878 -46.965 -129.407 126.394 -6.20681 -121.463 -65.698 2.44592 7.37634 -13.5021 2.00284 -12.5028 81.5251 -17.9516 32.5152 49.2094 -45.7236 -34.2654 -52.3339 -18.4994 1.37454 -9.13055 1.94921 -4.00269 -133.41 0.655725 -20.5297 70.1971 17.965 13.5346 35.6416 -4.94187 -9.0717 -117.661 4.01059 -3.67989 98.0895 -5.23807 -4.29285 51.8134 0.548987 -1.4694 -18.7497 10.379 8.57138 14.4613 -21.2094 3.35754 
-1.8858195 0.4513470 0.6649295 -6.55545 8.06688 11.8703 -176.381 1.68878 -15.2706 9.379 2.29259 13.3956 -3.8973 0.481338 -6.12497 -114.616 83.174 129.937 -113.291 -45.3759 -130.406 125.73 -12.6469 -124.605 -70.3708 3.07227 8.93338 -15.2277 2.1493 -13.3564 80.5925 -19.4905 34.3151 54.2749 -42.9884 -35.4217 -55.9137 -11.0001 0.44161 3.29545 1.78953 -14.0193 -131.192 0.703231 -22.5867 75.487 20.9745 13.1525 31.843 -5.039 -9.56502 -123.705 5.01312 -4.15132 105.291 -8.02339 -4.56735 43.3346 0.323656 -1.10352 -17.6934 9.4244 8.86486 15.1968 -21.639 4.10274 
-1.9071927 0.4502560 0.6734233 -7.99396 8.01664 12.4866 -174.036 1.9004 -14.4919 7.8805 2.63183 12.6504 -4.09032 -0.10723 -4.95991 -111.546 83.4409 127.953 -112.98 -43.678 -132.247 124.177 -16.7074 -126.109 -73.1575 1.23928 9.32534 -16.094 3.91856 -19.0569 79.6429 -21.2566 36.5936 60.1072 -43.6886 -34.7791 -67.9471 8.24667 -0.0920242 27.1472 -3.23877 -12.0425 -127.721 -0.140236 -23.5248 79.0028 22.0628 12.5367 29.1046 -4.96364 -9.74682 -128.644 5.61852 -4.5673 106.643 -9.92369 -4.6908 38.5471 0.219634 -0.827911 -16.6771 9.6897 8.44446 15.5408 -22.1344 4.91078 
-1.9294794 0.4502320 0.6812257 -8.86807 7.19369 13.6323 -171.168 1.87453 -13.22 5.37328 2.56104 12.0812 -3.69981 -0.348426 -4.04955 -110.157 83.485 127.57 -112.972 -41.9315 -134.99 122.809 -21.2044 -127.77 -76.0085 4.2251 9.43528 -18.2305 3.78067 -18.4756 78.5149 -23.4534 39.0888 58.1053 -46.1261 -35.7068 -74.6531 18.9152 -0.939656 45.8572 -6.90408 -13.3578 -123.6 -1.38586 -23.065 80.3586 22.6983 11.8995 27.4929 -4.97755 -9.98926 -133.036 6.14882 -4.07202 104.586 -10.541 -4.96856 36.4195 0.126104 -0.762778 -16.016 11.2605 6.94096 15.473 -22.7406 5.6286 
-1.9530809 0.4504160 0.6889197 -8.58085 6.17074 15.4115 -169.236 1.96199 -10.7628 2.7748 2.31507 10.9793 -2.49604 -0.483173 -3.11181 -110.487 83.21 126.91 -112.671 -39.9731 -137.6 119.148 -24.868 -128.661 -78.9453 5.89927 9.65762 -20.6221 3.94553 -18.352 77.1405 -26.1165 41.4328 53.342 -48.5147 -36.1669 -80.8327 27.2112 -2.64312 65.2153 -13.3444 -19.4217 -120.166 -2.27637 -22.0961 80.5528 23.7517 11.3084 26.9619 -5.14553 -10.3997 -137.219 6.69275 -2.86721 99.6698 -10.478 -5.55737 36.5691 0.129365 -0.776088 -16.176 13.7064 4.14931 14.8334 -23.3771 6.01798 
-1.9778425 0.4504320 0.6972119 -7.52032 5.44048 17.4167 -168.319 2.08815 -7.03421 0.478232 2.03541 8.41509 -1.17507 -0.697783 -1.8178 -110.455 82.6334 126.394 -112.231 -38.4341 -139.308 116.206 -29.1026 -129.979 -80.1858 6.35219 9.5507 -23.0381 4.78286 -19.6864 75.8763 -28.748 43.6277 51.7132 -45.5886 -33.4181 -86.6939 3.83022 -7.89409 41.5174 -17.166 -64.3183 -117.214 -2.71137 -21.1124 79.9191 24.4332 10.7136 27.0823 -5.26266 -10.6319 -140.953 7.14188 -1.62681 92.0833 -10.4004 -6.53648 40.3331 0.390316 -0.741373 -16.7569 16.1755 0.671487 13.5442 -23.871 5.86914 
-2.0035680 0.4510900 0.7061864 -6.03925 4.96538 19.1296 -167.897 2.33023 -2.93983 -1.75462 1.96716 5.17205 0.57371 -1.0927 -0.622285 -109.844 82.0804 124.704 -111.552 -36.7312 -140.851 113.125 -32.5314 -132.399 -80.2991 6.82004 9.64991 -25.6341 5.66918 -20.8372 74.6314 -31.1583 45.0079 51.7964 -41.7519 -35.6127 -94.0848 10.6552 -10.0946 43.0376 -16.6317 -58.578 -114.811 -2.77207 -20.4505 78.7443 25.152 10.6395 29.6436 -5.57893 -10.9499 -143.946 7.03612 -1.01711 82.9427 -8.80425 -7.4305 47.1204 0.75858 -0.851898 -17.5478 18.3599 -2.69265 11.9548 -24.1045 5.19751 
-2.0293271 0.4528940 0.7150260 -4.37314 4.59694 20.1787 -167.915 2.65844 0.599628 -3.4855 2.21069 1.92188 2.09175 -1.80573 0.481666 -107.911 81.6492 121.268 -111.214 -35.4676 -142.519 110.664 -35.4363 -134.982 -79.1729 8.28563 9.43038 -28.2266 6.20424 -21.0863 73.6466 -33.3183 46.4893 51.1134 -36.3871 -40.9337 -97.5965 30.142 -12.1324 56.1517 -15.5259 -32.8331 -112.264 -2.91673 -19.9151 76.3071 26.0149 10.9738 33.1317 -5.9873 -11.2599 -145.412 5.95363 -1.30592 72.6998 -8.34472 -7.88415 54.312 1.36594 -0.81753 -18.7337 20.3455 -5.15708 10.2886 -24.3281 4.28534 
-2.0540619 0.4558910 0.7230941 -3.07770 4.24513 20.4705 -168.323 2.82172 2.44486 -3.95272 2.28755 0.630194 2.79722 -2.5606 0.251485 -105.797 80.905 117.931 -110.322 -34.082 -143.056 109.284 -37.5011 -137.243 -77.1238 9.99146 8.96567 -30.3443 6.26421 -20.4593 71.7813 -35.811 45.912 51.782 -27.6321 -43.7789 -98.8079 34.109 -15.2571 49.9464 -10.6893 -25.2996 -109.84 -3.48644 -19.5595 73.7281 26.3272 11.2694 38.0051 -6.2786 -11.1626 -145.333 4.64376 -2.34171 64.2037 -12.6088 -7.72144 59.4866 2.56024 -0.171534 -19.7213 21.7362 -6.56531 8.85427 -24.345 3.34613 
-2.0772572 0.4586170 0.7301000 -2.43831 4.02776 19.6315 -169.258 2.66295 2.62881 -2.74082 2.26634 -0.0562357 2.66302 -3.11781 0.0746399 -105.231 80.1238 116.126 -109.398 -33.124 -142.576 111.056 -39.2514 -137.339 -73.122 10.6875 7.81445 -31.3085 7.1209 -21.8301 69.7464 -38.0148 44.5278 52.018 -17.5804 -46.7703 -96.845 31.1803 -17.5118 37.9897 -6.13072 -21.8607 -108.241 -4.26634 -19.3189 72.7437 25.8592 11.1866 43.575 -6.37718 -10.7257 -143.224 5.26356 -2.54979 60.418 -14.9756 -8.51077 61.3956 3.21142 0.252336 -20.4521 22.1955 -6.72612 8.04258 -24.1911 2.70027 
-2.0994833 0.4597210 0.7358638 -2.16221 3.63668 18.3073 -171.079 2.18865 1.8039 0.115528 2.00937 -0.261408 1.77974 -3.10278 -0.0774959 -106.141 79.6307 116.782 -108.24 -31.8525 -142.07 112.985 -39.9104 -137.752 -69.7746 12.055 6.94459 -31.1142 6.46879 -20.5423 67.6836 -40.2192 43.3219 52.07 -7.56985 -50.2701 -91.9319 20.8599 -18.2834 22.5997 -1.57123 -20.3632 -109.137 -5.1315 -18.9571 75.6917 24.88 9.84135 48.4105 -5.99032 -9.76649 -139.41 5.92025 -4.16482 60.2652 -12.9653 -7.46082 60.6765 2.84577 0.0147128 -20.7626 22.2013 -6.34244 7.94551 -23.7072 2.27543 
-2.1210916 0.4587410 0.7405881 -2.30064 2.93242 16.9247 -172.789 1.61918 0.45568 2.88688 1.61115 0.06743 1.2534 -3.21576 -0.11013 -106.829 78.8934 117.139 -106.29 -29.4786 -141.627 115.961 -40.4322 -137.977 -66.4762 11.7864 5.58894 -28.8797 6.21163 -20.635 65.6887 -41.9343 41.6567 49.0141 0.561801 -52.3941 -84.8373 2.38655 -16.9068 3.07225 2.93843 -15.5528 -112.164 -5.79053 -17.595 84.1248 21.3188 6.57568 48.5974 -4.82627 -8.24879 -137.233 5.14887 -6.87989 67.0375 -12.0013 -4.68601 52.8664 2.7263 0.393431 -20.4626 22.2116 -6.03408 8.52188 -23.0004 2.09553 
-2.1442307 0.4561200 0.7459943 -2.22804 2.00400 15.5355 -171.768 2.73326 2.56002 -0.527783 3.97352 -8.00346 6.70936 -4.82899 8.85456 -99.2826 82.2759 107.469 -105.712 -25.2201 -151.834 114.417 -38.2959 -145.268 -63.27 12.7816 4.71636 -25.6524 4.65492 -18.0931 73.114 -35.1743 48.5484 40.7415 0.581105 -50.6085 -79.0038 0.44067 -12.6854 -0.378084 1.19619 -3.78857 -117.184 -6.54622 -16.1899 95.6725 13.7598 3.4931 43.833 -3.42467 -6.61745 -135.42 4.84451 -6.53703 71.3276 -12.7247 -4.56404 48.1238 2.91435 0.94634 -20.4946 22.5714 -5.44044 9.43871 -22.5163 2.36968 
-2.1687902 0.4525840 0.7517799 -1.57984 1.07011 13.3939 -174.346 2.13203 0.875511 2.19428 3.61312 -8.83492 6.36494 -4.89387 10.4668 -98.4633 82.8091 106.791 -104.594 -23.8718 -152.148 115.54 -38.0006 -144.93 -59.6859 12.1035 3.07097 -22.4787 3.40643 -15.4166 72.4591 -36.4528 49.0288 40.6901 4.18205 -53.9532 -72.8944 -8.44325 -9.59528 -4.05513 1.8021 -5.5577 -122.565 -7.89805 -15.0411 104.715 10.6418 1.9823 34.9301 -2.80634 -5.86769 -133.642 4.00663 -5.36008 72.6845 -13.7621 -4.78273 46.4824 2.94727 1.23105 -21.7423 22.8408 -3.32562 10.4104 -22.2657 2.43742 
-2.1927299 0.4516570 0.7570325 -1.39542 0.45330 11.2696 -175.189 1.81683 -0.943361 3.12957 3.6374 -9.79495 6.78478 -5.01366 12.5593 -95.1469 83.9398 103.28 -104.071 -23.3104 -152.057 115.541 -38.3412 -144.232 -58.5054 9.14004 1.57874 -15.1779 1.3935 -10.063 72.4885 -37.3355 50.6832 39.7498 1.49171 -56.3212 -65.0106 -12.7445 -2.28464 -3.8099 0.64311 -2.19594 -128.295 -8.75599 -15.6979 109.803 9.01351 1.7191 27.7719 -2.49651 -5.40197 -131.284 3.11883 -5.01986 76.2152 -14.8555 -4.52504 43.2637 2.87838 1.53775 -22.57 22.6466 -1.32764 10.9483 -22.0291 2.34626 
-2.2173964 0.4526250 0.7619308 -1.70426 -0.29387 9.49392 -174.658 1.3865 -3.30888 3.00775 3.44362 -9.12636 7.37562 -5.24244 13.6274 -89.3425 84.913 97.0819 -104.566 -24.3331 -150.45 112.946 -36.5792 -142.78 -61.2637 -5.97296 2.6582 2.57948 0.710198 -2.27851 72.2924 -37.9311 51.1659 35.8568 -6.80733 -54.9082 -61.6556 -13.8793 2.08442 -4.78295 -0.275985 1.73485 -132.469 -8.99856 -17.2226 108.701 11.5464 2.67605 23.855 -2.71006 -5.71159 -128.218 2.36234 -5.2816 78.6474 -14.1407 -3.8231 42.7649 2.76013 1.42215 -22.1888 22.2585 -0.1919 10.8245 -21.3117 2.04667 
-2.2431742 0.4538950 0.7667103 -1.63371 -0.77263 8.07368 -174.221 0.980518 -6.12315 2.79446 3.14406 -7.15084 7.37363 -5.3883 13.8722 -82.2632 85.6235 90.4267 -105.962 -26.7326 -148.039 111.534 -33.9306 -140.303 -61.6905 -47.6115 10.7301 22.4575 2.78436 -27.6563 72.7283 -37.4517 51.5556 34.0855 -13.2771 -51.7779 -65.2927 -17.3555 -2.47326 -13.0507 -0.152996 3.77103 -136.393 -8.22167 -19.2586 104.473 15.2876 4.63821 24.2358 -3.09484 -6.37881 -124.657 1.70565 -5.01763 79.0846 -14.4494 -3.63794 43.5211 2.81578 1.4145 -21.5879 21.4618 0.383589 10.2038 -20.242 1.63976 
